<svg height="1024pt" preserveAspectRatio="xMidYMid meet" viewBox="0 0 1024 1024" width="1024pt" xmlns="http://www.w3.org/2000/svg"><g transform="matrix(.1 0 0 -.1 0 1024)"><path d="m0 5120v-5120h5120 5120v5120 5120h-5120-5120zm5290 2047c21-83 46-111 119-129 95-24 96-73 2-94-80-18-103-40-121-114-27-109-74-109-97 1-17 85-29 95-155 123-30 7-46 40-28 61 6 7 30 17 53 20 86 15 120 49 133 136 8 55 21 71 53 67 22-3 27-11 41-71zm365-419c229-66 344-242 291-447-35-139-104-248-254-403-133-137-201-191-239-186-23 2-29 8-31 33-3 27 8 40 104 125 229 205 334 369 334 523-1 110-53 186-166 239-34 16-90 34-125 40-94 17-128 57-77 92 26 18 56 15 163-16zm-1886-162c6-7 16-40 22-72 19-106 44-129 178-167 90-25 80-72-20-97-35-9-74-22-86-28-35-19-60-63-73-130-15-72-30-90-64-74-26 12-31 23-41 95-12 86-57 120-197 151-30 7-46 40-28 61 6 7 35 19 63 25 111 23 154 69 172 180 4 25 12 51 17 58 14 16 43 15 57-2zm1517-185c133-27 369-126 396-165 14-21 8-46-16-61-23-15-28-14-103 23-376 190-767 175-1088-41-285-191-450-479-471-822-4-60-11-116-17-122-12-16-63-17-73-1s-6 197 6 277c13 86 53 208 97 296 166 332 476 566 834 629 107 19 310 13 435-13zm909-256c30-29 32-58 5-85-40-40-120-12-120 43 0 27 9 40 35 55 31 18 54 14 80-13zm-1525-70c22-27 4-59-52-88-117-60-226-175-290-305-39-78-43-83-71-80-64 6-60 53 17 182 70 117 218 260 307 295 36 15 75 13 89-4zm1400-175c11-11 20-33 20-50s-9-39-20-50c-41-41-120-12-120 45 0 14 11 37 25 50 29 30 68 32 95 5zm-195-205c47-46 18-109-50-109-44 0-65 22-65 70 0 61 70 85 115 39zm263-38c22-26 62-191 72-296 33-328-64-616-294-881-149-171-176-205-209-269-19-36-46-97-58-136-23-69-24-78-24-485l-1-415-26-51c-31-59-84-109-126-119-24-5-38-20-69-72-98-170-297-225-491-138-67 30-117 77-159 150-25 43-36 52-81 67-72 23-106 50-134 106-23 46-23 54-29 452-6 446-8 456-73 594-42 87-111 186-205 291-135 152-225 293-253 398-13 50-8 71 25 91 24 16 48-14 89-109 46-109 87-168 233-336 182-208 252-354 277-571l11-98h150 150l-6 203c-6 181-17 321-33 400-4 18-12 27-24 27-40 0-181 58-228 94-152 116-126 316 41 316 63 0 109-22 153-74 38-44 97-161 109-214 9-44 33-52 160-52 113 0 129 7 141 58 24 97 112 231 173 261 61 31 100 33 145 11 61-30 81-63 81-136 0-51-5-67-30-104-38-55-123-111-206-134-104-29-106-31-113-73-15-96-26-272-26-420v-163h134 133l8 92c12 157 60 304 136 414 18 27 75 95 127 153 118 132 163 192 212 284 68 128 120 336 120 483 0 64-20 191-52 331-9 41-9 55 1 67 16 19 55 21 69 3zm-860-14c53-45 27-117-43-117-64 0-87 63-40 109 28 29 55 32 83 8zm1419 5c5-7 15-39 22-70 16-73 59-113 135-125 48-8 51-10 51-38s-4-31-65-47c-79-22-109-50-124-119-21-93-72-93-92 0-20 90-32 99-147 125-60 14-45 64 24 81 86 22 110 48 124 135 8 52 20 70 45 70 10 0 22-6 27-12zm-1639-135c18-25 15-70-8-93-43-43-120-11-120 49 0 61 92 92 128 44zm550 1c26-18 29-60 5-86-23-26-78-24-97 4-22 31-20 45 9 73 28 29 51 31 83 9zm-1368-24c11-11 20-27 20-35 0-18-35-55-53-55-7 0-23 7-35 16-31 21-26 64 8 81 33 17 37 16 60-7zm-566-56c27-27 18-48-43-101-181-160-97-264 189-233 284 29 534 101 857 246 101 45 126 53 143 44 13-7 20-21 20-40 0-27-7-33-77-69-241-121-587-233-838-272-127-19-290-17-353 4-168 59-189 198-54 348 74 83 124 106 156 73z"/><path d="m5210 7015-23-25 26-20c32-26 32-26 63-1l26 20-29 25c-35 31-34 31-63 1z"/><path d="m3706 6341-38-39 38-35 38-35 42 36 41 37-31 23c-17 12-36 29-42 37-9 12-17 8-48-24z"/><path d="m4648 4773c-28-7-34-51-12-91 27-51 178-141 199-120 9 8-41 115-71 156-14 17-38 39-54 47-30 15-33 16-62 8z"/><path d="m5434 4761c-16-10-44-40-62-67-34-54-66-124-59-130 8-8 111 36 152 64 22 15 48 44 58 65 18 35 18 39 3 62-20 30-50 32-92 6z"/><path d="m4964 4423c14-62 26-236 26-373 0-80 3-162 6-182l7-38h78 79v154c0 126 9 296 23 436l2 25-113 3-114 3z"/><path d="m4617 3723c-4-3-7-53-7-110 0-91 2-103 18-103 25 0 176 24 342 54 80 14 224 39 320 56 254 44 230 36 230 76v34h-448c-247 0-452-3-455-7z"/><path d="m5270 3520c-118-21-309-54-425-74-115-20-216-38-222-41-9-3-13-27-13-70v-67l28 6c78 15 346 60 572 96 336 53 314 46 318 100 4 59-5 90-26 89-9-1-114-18-232-39z"/><path d="m5120 3260c-190-33-378-65-417-71-80-13-87-22-47-60l26-24 380-3c339-3 382-2 405 13 33 22 51 68 55 140l3 60-30 2c-16 1-185-25-375-57z"/><path d="m4843 2987c-3-4 15-27 39-51 33-33 59-49 112-65 37-11 78-21 90-21 27 0 105 24 143 44 32 16 93 80 93 97 0 13-469 9-477-4z"/><path d="m6640 5435-23-24 24-20c13-11 26-20 29-20s16 9 29 20l24 20-23 24c-13 14-26 25-30 25s-17-11-30-25z"/></g></svg>