<?xml version="1.0" standalone="no"?>
<!DOCTYPE svg PUBLIC "-//W3C//DTD SVG 20010904//EN"
 "http://www.w3.org/TR/2001/REC-SVG-20010904/DTD/svg10.dtd">
<svg version="1.0" xmlns="http://www.w3.org/2000/svg"
 width="328.000000pt" height="294.000000pt" viewBox="0 0 328.000000 294.000000"
 preserveAspectRatio="xMidYMid meet">

<g transform="translate(0.000000,294.000000) scale(0.100000,-0.100000)"
fill="#000000" stroke="none">
<path d="M1746 2068 c-108 -211 -296 -571 -300 -576 -2 -1 -66 94 -144 210
-365 551 -383 574 -390 482 -8 -107 43 -241 176 -460 33 -54 103 -175 156
-268 l96 -168 -61 -114 c-34 -62 -72 -122 -84 -134 l-22 -21 -52 21 c-96 37
-187 22 -258 -43 -75 -69 -102 -146 -83 -234 16 -72 53 -121 113 -149 120 -56
244 -15 313 102 20 34 27 63 31 125 6 78 8 85 63 168 62 94 75 107 138 141 70
39 73 17 14 -87 -82 -144 -262 -518 -262 -545 0 -13 5 -29 12 -36 18 -18 73
-15 90 6 20 23 147 252 239 429 41 79 76 143 80 143 7 0 91 -118 106 -149 7
-14 12 -45 13 -69 0 -48 44 -144 82 -179 44 -42 117 -67 194 -68 65 0 74 -3
126 -38 80 -55 173 -63 198 -17 18 34 -3 57 -61 65 -35 5 -61 16 -81 34 l-31
27 22 62 c26 77 26 107 0 176 -25 69 -91 130 -162 151 -69 21 -102 19 -172
-10 -71 -29 -85 -24 -140 57 -40 61 -40 59 -19 104 21 43 36 43 134 -1 43 -19
87 -35 99 -35 21 0 57 53 46 69 -9 16 -216 121 -226 116 -19 -12 -6 -23 89
-75 117 -65 108 -58 94 -72 -9 -9 -31 -2 -92 26 -44 21 -95 39 -112 40 -28 1
-35 -4 -53 -36 -11 -21 -22 -38 -25 -38 -3 0 -15 16 -28 36 l-23 35 114 217
c63 119 156 298 207 397 96 188 123 225 167 225 28 0 211 -98 232 -124 31 -37
-6 -31 -94 15 -86 46 -115 53 -115 29 0 -4 50 -34 112 -65 l112 -57 18 22 c10
12 18 27 18 34 -1 31 -78 90 -199 151 -63 32 -130 31 -163 -2 -11 -11 -65
-109 -122 -219 -252 -489 -310 -597 -313 -587 -2 6 18 55 45 110 103 205 260
550 276 605 16 55 22 210 10 242 -17 45 -42 13 -148 -196z m110 -26 c-8 -31
-47 -127 -86 -212 -40 -85 -96 -208 -126 -273 -29 -65 -65 -138 -80 -163 l-26
-45 -34 53 c-18 29 -34 58 -34 63 0 6 43 89 95 185 53 96 141 265 198 375
l102 200 3 -63 c2 -34 -4 -88 -12 -120z m-682 -204 c118 -178 259 -388 313
-468 54 -80 118 -176 143 -215 24 -38 65 -91 91 -118 53 -55 49 -54 154 -17
53 19 66 21 111 11 139 -31 217 -187 156 -310 -20 -40 -21 -47 -7 -67 24 -38
80 -74 126 -83 l44 -8 -27 -13 c-24 -11 -34 -10 -75 5 -26 10 -65 35 -87 55
l-41 37 -45 -14 c-66 -20 -136 3 -199 65 -40 38 -51 57 -60 100 -6 29 -11 65
-11 81 0 32 -34 87 -117 191 -43 55 -76 84 -122 110 -120 68 -123 71 -257 305
-220 382 -284 499 -295 535 -13 45 -24 140 -16 140 4 0 103 -145 221 -322z
m223 -620 c18 -13 33 -25 33 -28 0 -3 -17 -14 -37 -25 -41 -22 -92 -83 -149
-177 -35 -57 -38 -70 -40 -139 -3 -114 -35 -168 -124 -208 -56 -25 -113 -26
-165 -2 -48 22 -69 44 -90 94 -52 124 34 272 170 293 28 4 60 -1 103 -15 34
-12 70 -21 81 -21 24 0 51 35 122 158 29 50 55 92 58 92 3 0 20 -10 38 -22z
m183 -130 c0 -4 -70 -139 -156 -298 -121 -226 -160 -290 -175 -290 -11 0 -22
7 -26 15 -5 14 178 389 274 563 l35 63 24 -22 c13 -12 24 -26 24 -31z"/>
<path d="M1419 1341 c-20 -16 -22 -23 -14 -47 12 -35 37 -41 70 -20 30 20 32
39 5 66 -25 25 -32 25 -61 1z m41 -36 c0 -8 -7 -15 -15 -15 -8 0 -15 7 -15 15
0 8 7 15 15 15 8 0 15 -7 15 -15z"/>
<path d="M1883 976 c-91 -41 -98 -188 -11 -261 67 -57 151 -53 206 10 60 68
46 171 -32 230 -44 34 -115 43 -163 21z m123 -32 c37 -18 71 -65 74 -104 4
-52 -1 -69 -31 -99 -38 -39 -90 -42 -140 -8 -73 48 -87 141 -29 199 33 33 74
37 126 12z"/>
<path d="M965 971 c-93 -42 -133 -132 -96 -215 52 -119 204 -116 269 4 43 80
12 184 -64 216 -43 18 -61 17 -109 -5z m125 -49 c58 -58 44 -151 -29 -199 -80
-54 -171 -5 -171 92 0 110 128 178 200 107z"/>
<path d="M2065 1979 c-9 -13 -19 -6 109 -72 101 -53 126 -60 126 -36 0 7 -210
119 -224 119 -3 0 -8 -5 -11 -11z"/>
<path d="M2030 1915 c-11 -13 5 -23 105 -70 105 -49 146 -60 130 -35 -3 5 -55
34 -114 64 -94 48 -111 53 -121 41z"/>
<path d="M1998 1848 c-5 -14 198 -121 216 -115 28 9 3 30 -92 77 -112 54 -118
56 -124 38z"/>
<path d="M1965 1789 c-9 -14 -13 -11 109 -74 99 -51 126 -59 126 -34 0 7 -210
119 -224 119 -3 0 -8 -5 -11 -11z"/>
<path d="M1930 1725 c-9 -11 10 -24 102 -69 62 -31 116 -56 121 -56 4 0 7 7 7
15 0 9 -44 37 -109 70 -90 45 -111 52 -121 40z"/>
<path d="M1900 1658 c0 -14 195 -119 218 -118 33 0 -2 29 -93 77 -104 55 -125
61 -125 41z"/>
<path d="M1863 1595 c-3 -9 -4 -17 -2 -18 9 -7 229 -107 234 -107 3 0 5 6 5
13 0 11 -205 127 -224 127 -4 0 -9 -7 -13 -15z"/>
<path d="M1837 1533 c-14 -13 -5 -20 103 -73 93 -46 112 -52 120 -40 8 12 -11
25 -93 67 -104 53 -119 58 -130 46z"/>
<path d="M1800 1466 c0 -16 208 -129 221 -120 23 14 0 34 -96 82 -113 56 -125
60 -125 38z"/>
<path d="M1767 1413 c-16 -15 -2 -25 103 -78 99 -49 137 -60 128 -35 -3 7
-211 120 -221 120 -2 0 -7 -3 -10 -7z"/>
</g>
</svg>
