<svg height="1024pt" preserveAspectRatio="xMidYMid meet" viewBox="0 0 1024 1024" width="1024pt" xmlns="http://www.w3.org/2000/svg"><g transform="matrix(.1 0 0 -.1 0 1024)"><path d="m0 5120v-5120h5120 5120v5120 5120h-5120-5120zm6431 2591c27-22 27-21-29-181-16-47-39-145-51-218-12-72-30-156-40-185-91-265-297-427-601-473-123-18-244-19-259 0-35 42-39 386-6 496 50 163 163 320 293 406 148 99 393 168 613 173 42 1 63-4 80-18zm-1724-613c237-316 600-902 673-1088 18-47 18-50 1-71-31-39-55-18-122 109-126 237-425 711-596 945l-50 68-60-83c-83-115-244-356-347-521-435-694-584-1186-467-1535 31-92 87-201 142-277 48-66 181-195 221-216 58-29 62-99 7-99s-239 166-330 297c-117 170-168 314-176 498-10 234 48 465 198 797 124 273 422 763 712 1171 92 130 100 130 194 5zm951-1308c195-39 302-83 458-186 275-181 477-492 530-813 23-138 14-352-20-486-29-114-121-309-185-395l-42-54 65-65c58-57 67-63 81-51 10 9 41 14 76 15h58l118-115c578-565 743-734 760-779 38-98 12-212-67-291-47-47-100-71-171-77-52-5-67-2-121 25-55 27-119 87-480 449-295 296-419 427-424 448-5 19-1 46 10 78 20 56 18 59-58 128l-40 37-41-28c-157-107-323-178-494-210-159-31-370-25-516 13-417 110-738 405-873 802-71 208-75 511-11 713 104 324 317 577 615 729 144 74 233 101 414 127 83 12 266 4 358-14zm-2266-1135c280-366 515-795 589-1076 26-98 30-257 10-354-39-182-185-375-343-452-116-57-155-66-293-71-159-5-251 16-370 83-171 98-292 256-341 445-22 84-22 267 1 370 39 182 244 602 425 870 20 30 65 98 100 150 84 127 88 132 124 128 24-2 42-20 98-93z"/><path d="m6225 7623c-16-2-78-15-137-28-234-53-411-172-493-335-50-98-67-170-72-300l-5-125 41 65c105 171 176 272 243 347 88 100 175 175 197 171 8-2 22-15 31-30 15-28 15-28-71-115-132-136-226-261-323-433-27-47-51-89-54-94-11-19 164 5 252 35 114 38 187 83 258 157 90 94 122 172 163 397 21 116 44 205 73 283 4 12-36 14-103 5z"/><path d="m5293 5710c-374-53-689-273-852-595-91-181-128-358-118-560 9-172 41-294 117-445 129-255 377-466 657-559 174-58 458-67 633-21 355 94 627 336 759 675 52 132 71 238 71 395 0 195-29 320-116 493-152 301-442 525-776 598-101 22-287 32-375 19zm248-120c385-44 714-304 835-657 46-134 58-223 51-373-6-134-21-202-70-320-115-281-358-496-654-577-86-24-117-27-248-27-134-1-161 2-255 27-308 83-544 296-667 601-48 121-67 244-60 401 7 162 31 255 98 390 163 328 473 524 859 544 14 0 64-4 111-9z"/><path d="m5325 5490c-269-42-520-216-648-450-75-138-107-261-107-422 0-407 246-733 650-860 101-31 336-34 445-4 165 45 314 134 427 255 115 124 195 277 225 433 21 112 13 304-16 407-76 260-281 488-529 585-132 52-319 75-447 56zm603-386c30-21 28-42-13-144-20-51-48-152-65-237-57-291-147-432-335-525-112-56-197-73-363-73-171 0-175 3-188 113-47 392 103 678 426 809 91 37 111 42 225 58 134 19 285 19 313-1z"/><path d="m5625 5009c-281-41-490-205-549-432-19-72-29-204-19-240 8-27 9-26 53 40 110 166 251 323 352 390 46 31 84 26 94-14 6-23 1-32-42-66-127-104-274-277-363-429l-25-41 100 6c120 7 211 34 290 85 135 88 193 196 243 458 18 96 38 169 66 237 6 15 0 17-66 16-41-1-101-5-134-10z"/><path d="m6302 3747-22-23 55-54 55-54 27 27 27 27-49 50c-27 27-54 50-60 50-7 0-21-10-33-23z"/><path d="m6568 3630c-54-36-139-124-161-167l-16-30 412-408c235-233 426-414 444-422 44-18 77-16 121 6 45 23 77 56 91 94 16 43 13 109-7 138-9 14-156 162-327 330-170 167-350 346-399 397-49 50-94 92-101 92-6 0-32-13-57-30z"/><path d="m3248 4548c-180-256-377-608-453-812-48-126-65-212-65-326 0-178 57-318 180-440 118-118 246-170 417-170 244 0 437 130 534 358 30 70 33 88 37 199 4 110 1 131-24 220-55 198-154 404-312 653-91 143-246 365-261 374-5 4-29-22-53-56zm-328-993c9-10 10-34 6-78-8-73 12-185 45-254 30-63 114-150 172-179 27-14 81-34 121-44 59-15 73-22 80-43 27-74-88-78-227-9-190 94-294 275-285 498 2 58 8 97 17 107 17 21 54 22 71 2z"/></g></svg>