<?xml version="1.0" standalone="no"?>
<!DOCTYPE svg PUBLIC "-//W3C//DTD SVG 20010904//EN"
 "http://www.w3.org/TR/2001/REC-SVG-20010904/DTD/svg10.dtd">
<svg version="1.0" xmlns="http://www.w3.org/2000/svg"
 width="150" height="150" viewBox="0 0 351.000000 297.000000"
 preserveAspectRatio="xMidYMid meet">

<g transform="translate(0.000000,297.000000) scale(0.100000,-0.100000)"
fill="#F5F2EE" stroke="#F5F2EE">
<path d="M830 1598 c-57 -128 -125 -282 -151 -341 -27 -60 -49 -117 -49 -127
0 -13 28 -30 108 -64 59 -25 114 -46 123 -46 9 0 24 18 34 40 10 22 21 40 24
40 3 -1 41 -33 84 -73 75 -69 78 -73 68 -100 -8 -21 -7 -36 3 -62 15 -35 67
-75 97 -75 12 0 18 -12 22 -42 7 -55 43 -88 96 -88 33 0 39 -4 54 -36 20 -41
73 -68 113 -58 21 5 31 0 58 -30 29 -31 40 -36 77 -36 23 0 62 9 86 21 l44 21
49 -21 c82 -35 153 -22 178 34 11 24 17 26 45 21 42 -8 92 22 114 69 15 31 20
35 44 30 51 -11 111 34 126 95 7 28 15 36 41 41 61 12 98 67 89 131 -5 38 -3
40 64 98 38 33 73 60 78 60 4 0 16 -18 26 -40 10 -23 22 -43 27 -46 9 -6 217
82 235 100 10 9 -1 42 -48 151 -34 77 -89 205 -124 285 -101 233 -124 280
-134 280 -17 0 -225 -100 -232 -112 -4 -6 -2 -24 3 -41 13 -35 4 -43 -63 -52
-51 -7 -189 13 -307 45 -95 26 -167 26 -210 0 -31 -19 -36 -20 -78 -5 -66 22
-116 19 -217 -17 -102 -35 -181 -42 -235 -19 -24 10 -31 18 -26 30 4 9 7 27 8
40 1 21 -13 32 -103 78 -57 29 -112 53 -121 53 -12 0 -44 -62 -120 -232z m225
150 c47 -23 85 -46 85 -51 0 -6 -278 -638 -284 -644 -5 -6 -186 82 -186 91 0
6 13 38 28 71 16 33 80 176 142 318 62 141 117 257 121 257 5 0 47 -19 94 -42z
m1585 -228 c61 -140 125 -284 141 -319 16 -35 28 -65 27 -66 -16 -15 -185 -82
-191 -76 -6 6 -251 551 -278 619 -8 21 -3 26 83 67 51 25 95 42 100 37 4 -4
57 -122 118 -262z m-725 121 c168 -47 304 -61 375 -41 19 5 38 6 43 1 4 -4 44
-91 89 -192 44 -101 88 -202 98 -224 l17 -41 -79 -68 -78 -68 -118 95 c-64 52
-184 143 -267 202 -82 59 -158 117 -168 128 -15 17 -21 18 -40 9 -37 -20 -108
-42 -132 -42 -17 0 -30 -12 -49 -44 -55 -95 -120 -146 -185 -146 -63 0 -76 21
-42 69 11 15 44 74 74 131 l55 105 133 72 c150 81 165 84 274 54z m-298 -2
c27 -10 26 -11 -52 -52 -75 -40 -82 -47 -114 -107 -18 -36 -56 -105 -83 -153
-59 -103 -57 -128 9 -147 79 -24 183 32 238 128 20 34 38 54 55 58 14 3 48 13
76 22 l52 15 98 -68 c136 -94 378 -280 436 -336 54 -51 60 -80 28 -122 -26
-32 -63 -41 -98 -23 -15 8 -77 52 -137 99 -60 47 -113 83 -117 81 -20 -13 0
-35 104 -114 61 -47 117 -91 124 -98 21 -20 17 -47 -12 -81 -44 -53 -79 -42
-227 66 -79 57 -107 69 -107 43 0 -4 45 -40 100 -80 55 -39 100 -75 100 -80 0
-25 -26 -60 -51 -70 -41 -18 -72 -6 -178 66 -57 38 -99 60 -104 55 -14 -14 -3
-25 88 -87 47 -32 85 -61 85 -66 0 -15 -39 -47 -67 -54 -20 -6 -44 2 -100 30
-69 36 -72 39 -66 66 9 45 -5 79 -39 100 -29 17 -32 23 -29 63 2 39 -1 47 -29
71 -18 14 -44 26 -59 26 -24 0 -30 6 -40 40 -20 66 -93 90 -158 50 l-32 -19
-18 29 c-32 54 -117 65 -158 20 -10 -11 -23 -20 -29 -20 -6 0 -47 33 -91 74
l-80 73 27 64 c32 75 179 403 182 407 2 1 22 -5 46 -13 65 -23 125 -18 240 20
113 37 143 41 187 24z m-359 -662 c31 -29 28 -57 -14 -105 -29 -34 -42 -42
-69 -42 -35 0 -75 36 -75 69 0 28 37 77 70 93 37 18 54 15 88 -15z m190 -24
c44 -38 39 -61 -39 -161 -72 -92 -97 -110 -139 -97 -30 9 -52 48 -45 78 8 32
107 157 143 179 34 23 54 23 80 1z m132 -113 c11 -11 20 -28 20 -39 0 -20 -93
-169 -118 -188 -26 -21 -79 -16 -96 9 -26 36 -19 57 41 135 82 107 112 124
153 83z m75 -150 c15 -17 17 -26 8 -54 -8 -27 -8 -39 4 -56 14 -19 12 -21 -21
-35 -42 -18 -61 -19 -86 -5 -35 18 -44 48 -24 78 60 95 85 110 119 72z"/>
<path d="M760 1220 c-11 -11 -20 -29 -20 -40 0 -27 35 -60 63 -60 29 0 57 29
57 58 0 28 -34 62 -60 62 -11 0 -29 -9 -40 -20z m70 -39 c0 -5 -7 -14 -16 -21
-12 -11 -18 -10 -31 3 -23 22 0 52 28 36 10 -5 19 -13 19 -18z"/>
<path d="M2640 1220 c-38 -38 -14 -100 38 -100 25 0 62 33 62 55 0 20 -45 65
-65 65 -8 0 -24 -9 -35 -20z m63 -34 c3 -8 -1 -20 -9 -27 -12 -10 -18 -9 -31
3 -8 9 -12 21 -9 27 10 16 43 14 49 -3z"/>
</g>
</svg>
